<svg width="64" height="64" viewBox="0 0 64 64" xmlns="http://www.w3.org/2000/svg">
  <!-- Icon Container (centered) -->
  <g id="icon" transform="translate(32, 32)">
    <!-- Shield Base -->
    <path d="M0 -20 L12 -17 L12 -2 C12 8 6 15 0 20 C-6 15 -12 8 -12 -2 L-12 -17 Z" 
          fill="#0F172A" 
          stroke="#26C6DA" 
          stroke-width="1.5"/>
    
    <!-- Digital Grid Pattern -->
    <g opacity="0.6">
      <rect x="-9" y="-14" width="3" height="3" fill="#26C6DA"/>
      <rect x="-5" y="-14" width="3" height="3" fill="#10B981"/>
      <rect x="-1" y="-14" width="3" height="3" fill="#26C6DA"/>
      <rect x="3" y="-14" width="3" height="3" fill="#10B981"/>
      <rect x="7" y="-14" width="3" height="3" fill="#26C6DA"/>
      
      <rect x="-7" y="-10" width="3" height="3" fill="#10B981"/>
      <rect x="-3" y="-10" width="3" height="3" fill="#26C6DA"/>
      <rect x="1" y="-10" width="3" height="3" fill="#10B981"/>
      <rect x="5" y="-10" width="3" height="3" fill="#26C6DA"/>
      <rect x="9" y="-10" width="3" height="3" fill="#10B981"/>
      
      <rect x="-9" y="-6" width="3" height="3" fill="#26C6DA"/>
      <rect x="-5" y="-6" width="3" height="3" fill="#10B981"/>
      <rect x="-1" y="-6" width="3" height="3" fill="#26C6DA"/>
      <rect x="3" y="-6" width="3" height="3" fill="#10B981"/>
      <rect x="7" y="-6" width="3" height="3" fill="#26C6DA"/>
      
      <rect x="-7" y="-2" width="3" height="3" fill="#10B981"/>
      <rect x="-3" y="-2" width="3" height="3" fill="#26C6DA"/>
      <rect x="1" y="-2" width="3" height="3" fill="#10B981"/>
      <rect x="5" y="-2" width="3" height="3" fill="#26C6DA"/>
      <rect x="9" y="-2" width="3" height="3" fill="#10B981"/>
      
      <rect x="-9" y="2" width="3" height="3" fill="#26C6DA"/>
      <rect x="-5" y="2" width="3" height="3" fill="#10B981"/>
      <rect x="-1" y="2" width="3" height="3" fill="#26C6DA"/>
      <rect x="3" y="2" width="3" height="3" fill="#10B981"/>
      <rect x="7" y="2" width="3" height="3" fill="#26C6DA"/>
    </g>
    
    <!-- Governance Checkmark -->
    <path d="M-5 2 L-1 6 L6 -1" 
          stroke="#10B981" 
          stroke-width="2.5" 
          stroke-linecap="round" 
          stroke-linejoin="round" 
          fill="none"/>
  </g>
</svg>