<?xml version="1.0" encoding="UTF-8"?>
<svg width="40" height="40" viewBox="0 0 40 40" fill="none" xmlns="http://www.w3.org/2000/svg">
  <!-- Modern shield icon -->
  <g id="shield-modern">
    <!-- Main shield shape -->
    <path d="M20 4L30 8V18C30 26 24 32 20 36C16 32 10 26 10 18V8L20 4Z" fill="url(#mainGradient)" stroke="white" stroke-width="1"/>
    
    <!-- Inner geometric pattern -->
    <path d="M20 8L26 10V18C26 23 22.5 27 20 30C17.5 27 14 23 14 18V10L20 8Z" fill="white" fill-opacity="0.2"/>
    
    <!-- Security checkmark -->
    <g transform="translate(20, 20)">
      <circle r="4" fill="white"/>
      <path d="M-1 0L0 1L2 -1" stroke="#3B82F6" stroke-width="1.5" stroke-linecap="round" stroke-linejoin="round"/>
    </g>
    
    <!-- Modern accent dots -->
    <circle cx="15" cy="15" r="1" fill="white" fill-opacity="0.6"/>
    <circle cx="25" cy="15" r="1" fill="white" fill-opacity="0.6"/>
    <circle cx="20" cy="12" r="1" fill="white" fill-opacity="0.8"/>
  </g>
  
  <defs>
    <linearGradient id="mainGradient" x1="20" y1="4" x2="20" y2="36" gradientUnits="userSpaceOnUse">
      <stop stop-color="#3B82F6"/>
      <stop offset="0.5" stop-color="#1D4ED8"/>
      <stop offset="1" stop-color="#1E40AF"/>
    </linearGradient>
  </defs>
</svg>